# MagicaVoxel @ Ephtracy

# group
o 

# material
mtllib head.mtl
usemtl palette

# normals
vn -1 0 0
vn 1 0 0
vn 0 0 1
vn 0 0 -1
vn 0 -1 0
vn 0 1 0

# texcoords
vt 0.142578 0.5
vt 0.146484 0.5
vt 0.150391 0.5
vt 0.154297 0.5
vt 0.205078 0.5

# verts
v -0.7 0.7 0
v -0.7 0.7 -0.2
v -0.7 0.8 0.1
v -0.7 0.8 0
v -0.7 0.8 -0.2
v -0.7 0.8 -0.3
v -0.7 1.2 0.1
v -0.7 1.2 -0.3
v -0.3 0.3 0.1
v -0.3 0.3 -0.3
v -0.3 0.7 0.7
v -0.3 0.7 0.2
v -0.3 0.7 0
v -0.3 0.7 -0.2
v -0.3 0.7 -0.4
v -0.3 0.7 -0.9
v -0.3 0.8 0.1
v -0.3 0.8 0
v -0.3 0.8 -0.2
v -0.3 0.8 -0.3
v -0.3 1.1 0.7
v -0.3 1.1 0.6
v -0.3 1.1 0.3
v -0.3 1.1 0.2
v -0.3 1.1 -0.4
v -0.3 1.1 -0.5
v -0.3 1.1 -0.8
v -0.3 1.1 -0.9
v -0.3 1.2 0.6
v -0.3 1.2 0.3
v -0.3 1.2 -0.5
v -0.3 1.2 -0.8
v -0.2 0.8 0.2
v -0.2 0.8 0.1
v -0.2 0.8 -0.3
v -0.2 0.8 -0.4
v -0.2 0.9 0.2
v -0.2 0.9 0.1
v -0.2 0.9 -0.3
v -0.2 0.9 -0.4
v 0 0.3 0.1
v 0 0.3 -0.3
v 0 0.7 0.1
v 0 0.7 -0.3
v 0 0.8 0.2
v 0 0.8 0.1
v 0 0.8 -0.3
v 0 0.8 -0.4
v 0 0.9 0.2
v 0 0.9 0.1
v 0 0.9 -0.3
v 0 0.9 -0.4
v 0 1.1 0.1
v 0 1.1 -0.3
v 0 1.2 0.1
v 0 1.2 -0.3
v 0.1 0.7 0.7
v 0.1 0.7 0.2
v 0.1 0.7 -0.4
v 0.1 0.7 -0.9
v 0.1 0.8 0.6
v 0.1 0.8 0.3
v 0.1 0.8 -0.5
v 0.1 0.8 -0.8
v 0.1 0.9 0.4
v 0.1 0.9 0.3
v 0.1 0.9 -0.7
v 0.1 0.9 -0.8
v 0.1 1 0.5
v 0.1 1 0.4
v 0.1 1 -0.6
v 0.1 1 -0.7
v 0.1 1.1 0.7
v 0.1 1.1 0.6
v 0.1 1.1 0.5
v 0.1 1.1 0.3
v 0.1 1.1 0.2
v 0.1 1.1 -0.4
v 0.1 1.1 -0.5
v 0.1 1.1 -0.6
v 0.1 1.1 -0.8
v 0.1 1.1 -0.9
v 0.1 1.2 0.6
v 0.1 1.2 0.3
v 0.1 1.2 -0.5
v 0.1 1.2 -0.8
v 0.4 0.7 0.1
v 0.4 0.7 -0.3
v 0.4 0.8 0
v 0.4 0.8 -0.2
v 0.4 1 0
v 0.4 1 -0.2
v 0.4 1.1 0.1
v 0.4 1.1 -0.3
v 1 0.8 0
v 1 0.8 -0.2
v 1 1 0
v 1 1 -0.2
v -0.3 0.7 0.7
v -0.3 1.1 0.7
v 0 0.7 0.7
v 0 1.1 0.7
v 0.1 0.7 0.7
v 0.1 1.1 0.7
v -0.3 1.1 0.6
v -0.3 1.2 0.6
v 0 1.1 0.6
v 0 1.2 0.6
v 0.1 1.1 0.6
v 0.1 1.2 0.6
v -0.7 0.8 0.1
v -0.7 1.2 0.1
v -0.3 0.3 0.1
v -0.3 0.8 0.1
v -0.2 0.8 0.1
v -0.2 0.9 0.1
v 0 0.3 0.1
v 0 0.7 0.1
v 0 0.8 0.1
v 0 0.9 0.1
v 0 1.1 0.1
v 0 1.2 0.1
v 0.4 0.7 0.1
v 0.4 1.1 0.1
v -0.7 0.7 0
v -0.7 0.8 0
v -0.3 0.7 0
v -0.3 0.8 0
v 0.4 0.8 0
v 0.4 1 0
v 1 0.8 0
v 1 1 0
v -0.3 0.7 -0.4
v -0.3 1.1 -0.4
v -0.2 0.8 -0.4
v -0.2 0.9 -0.4
v 0 0.7 -0.4
v 0 0.8 -0.4
v 0 0.9 -0.4
v 0 1.1 -0.4
v 0.1 0.7 -0.4
v 0.1 1.1 -0.4
v -0.3 1.1 -0.5
v -0.3 1.2 -0.5
v 0 1.1 -0.5
v 0 1.2 -0.5
v 0.1 1.1 -0.5
v 0.1 1.2 -0.5
v -0.3 1.1 0.3
v -0.3 1.2 0.3
v 0 1.1 0.3
v 0 1.2 0.3
v 0.1 1.1 0.3
v 0.1 1.2 0.3
v -0.3 0.7 0.2
v -0.3 1.1 0.2
v -0.2 0.8 0.2
v -0.2 0.9 0.2
v 0 0.7 0.2
v 0 0.8 0.2
v 0 0.9 0.2
v 0 1.1 0.2
v 0.1 0.7 0.2
v 0.1 1.1 0.2
v -0.7 0.7 -0.2
v -0.7 0.8 -0.2
v -0.3 0.7 -0.2
v -0.3 0.8 -0.2
v 0.4 0.8 -0.2
v 0.4 1 -0.2
v 1 0.8 -0.2
v 1 1 -0.2
v -0.7 0.8 -0.3
v -0.7 1.2 -0.3
v -0.3 0.3 -0.3
v -0.3 0.8 -0.3
v -0.2 0.8 -0.3
v -0.2 0.9 -0.3
v 0 0.3 -0.3
v 0 0.7 -0.3
v 0 0.8 -0.3
v 0 0.9 -0.3
v 0 1.1 -0.3
v 0 1.2 -0.3
v 0.4 0.7 -0.3
v 0.4 1.1 -0.3
v -0.3 1.1 -0.8
v -0.3 1.2 -0.8
v 0 1.1 -0.8
v 0 1.2 -0.8
v 0.1 1.1 -0.8
v 0.1 1.2 -0.8
v -0.3 0.7 -0.9
v -0.3 1.1 -0.9
v 0 0.7 -0.9
v 0 1.1 -0.9
v 0.1 0.7 -0.9
v 0.1 1.1 -0.9
v -0.3 0.3 0.1
v 0 0.3 0.1
v -0.3 0.3 -0.3
v 0 0.3 -0.3
v -0.3 0.7 0.7
v 0 0.7 0.7
v 0.1 0.7 0.7
v -0.3 0.7 0.2
v 0 0.7 0.2
v 0.1 0.7 0.2
v 0 0.7 0.1
v 0.4 0.7 0.1
v -0.7 0.7 0
v -0.3 0.7 0
v -0.7 0.7 -0.2
v -0.3 0.7 -0.2
v 0 0.7 -0.3
v 0.4 0.7 -0.3
v -0.3 0.7 -0.4
v 0 0.7 -0.4
v 0.1 0.7 -0.4
v -0.3 0.7 -0.9
v 0 0.7 -0.9
v 0.1 0.7 -0.9
v -0.2 0.8 0.2
v 0 0.8 0.2
v -0.7 0.8 0.1
v -0.3 0.8 0.1
v -0.2 0.8 0.1
v 0 0.8 0.1
v -0.7 0.8 0
v -0.3 0.8 0
v 0.4 0.8 0
v 1 0.8 0
v -0.7 0.8 -0.2
v -0.3 0.8 -0.2
v 0.4 0.8 -0.2
v 1 0.8 -0.2
v -0.7 0.8 -0.3
v -0.3 0.8 -0.3
v -0.2 0.8 -0.3
v 0 0.8 -0.3
v -0.2 0.8 -0.4
v 0 0.8 -0.4
v -0.2 0.9 0.2
v 0 0.9 0.2
v -0.2 0.9 0.1
v 0 0.9 0.1
v -0.2 0.9 -0.3
v 0 0.9 -0.3
v -0.2 0.9 -0.4
v 0 0.9 -0.4
v 0.4 1 0
v 1 1 0
v 0.4 1 -0.2
v 1 1 -0.2
v -0.3 1.1 0.7
v 0 1.1 0.7
v 0.1 1.1 0.7
v -0.3 1.1 0.6
v 0 1.1 0.6
v 0.1 1.1 0.6
v -0.3 1.1 0.3
v 0 1.1 0.3
v 0.1 1.1 0.3
v -0.3 1.1 0.2
v 0 1.1 0.2
v 0.1 1.1 0.2
v 0 1.1 0.1
v 0.4 1.1 0.1
v 0 1.1 -0.3
v 0.4 1.1 -0.3
v -0.3 1.1 -0.4
v 0 1.1 -0.4
v 0.1 1.1 -0.4
v -0.3 1.1 -0.5
v 0 1.1 -0.5
v 0.1 1.1 -0.5
v -0.3 1.1 -0.8
v 0 1.1 -0.8
v 0.1 1.1 -0.8
v -0.3 1.1 -0.9
v 0 1.1 -0.9
v 0.1 1.1 -0.9
v -0.3 1.2 0.6
v 0 1.2 0.6
v 0.1 1.2 0.6
v -0.3 1.2 0.3
v 0 1.2 0.3
v 0.1 1.2 0.3
v -0.7 1.2 0.1
v 0 1.2 0.1
v -0.7 1.2 -0.3
v 0 1.2 -0.3
v -0.3 1.2 -0.5
v 0 1.2 -0.5
v 0.1 1.2 -0.5
v -0.3 1.2 -0.8
v 0 1.2 -0.8
v 0.1 1.2 -0.8

# faces
f 4/2/1 2/2/1 1/2/1
f 5/2/1 2/2/1 4/2/1
f 7/2/1 4/2/1 3/2/1
f 7/2/1 6/2/1 5/2/1
f 7/2/1 5/2/1 4/2/1
f 8/2/1 6/2/1 7/2/1
f 13/2/1 10/2/1 9/2/1
f 14/2/1 10/2/1 13/2/1
f 17/2/1 13/2/1 9/2/1
f 18/2/1 13/2/1 17/2/1
f 19/2/1 10/2/1 14/2/1
f 20/2/1 10/2/1 19/2/1
f 21/3/1 12/3/1 11/3/1
f 22/3/1 12/3/1 21/3/1
f 23/3/1 12/3/1 22/3/1
f 24/3/1 12/3/1 23/3/1
f 25/3/1 16/3/1 15/3/1
f 26/3/1 16/3/1 25/3/1
f 27/3/1 16/3/1 26/3/1
f 28/3/1 16/3/1 27/3/1
f 29/3/1 23/3/1 22/3/1
f 30/3/1 23/3/1 29/3/1
f 31/3/1 27/3/1 26/3/1
f 32/3/1 27/3/1 31/3/1
f 37/3/1 34/3/1 33/3/1
f 38/3/1 34/3/1 37/3/1
f 39/3/1 36/3/1 35/3/1
f 40/3/1 36/3/1 39/3/1
f 41/2/2 42/2/2 43/2/2
f 43/2/2 42/2/2 44/2/2
f 45/3/2 46/3/2 49/3/2
f 49/3/2 46/3/2 50/3/2
f 47/3/2 48/3/2 51/3/2
f 51/3/2 48/3/2 52/3/2
f 53/2/2 54/2/2 55/2/2
f 55/2/2 54/2/2 56/2/2
f 57/4/2 58/4/2 61/4/2
f 61/4/2 58/4/2 62/4/2
f 59/4/2 60/4/2 63/4/2
f 63/4/2 60/4/2 64/4/2
f 61/5/2 62/5/2 65/5/2
f 62/4/2 58/4/2 66/4/2
f 65/5/2 62/5/2 66/5/2
f 63/5/2 64/5/2 67/5/2
f 64/4/2 60/4/2 68/4/2
f 67/5/2 64/5/2 68/5/2
f 61/5/2 65/5/2 69/5/2
f 65/1/2 66/1/2 70/1/2
f 69/5/2 65/5/2 70/5/2
f 63/5/2 67/5/2 71/5/2
f 67/1/2 68/1/2 72/1/2
f 71/5/2 67/5/2 72/5/2
f 57/4/2 61/4/2 73/4/2
f 61/5/2 69/5/2 74/5/2
f 73/4/2 61/4/2 74/4/2
f 69/1/2 70/1/2 75/1/2
f 74/5/2 69/5/2 75/5/2
f 70/1/2 66/1/2 76/1/2
f 75/1/2 70/1/2 76/1/2
f 66/4/2 58/4/2 76/4/2
f 76/4/2 58/4/2 77/4/2
f 59/4/2 63/4/2 78/4/2
f 63/5/2 71/5/2 79/5/2
f 78/4/2 63/4/2 79/4/2
f 71/1/2 72/1/2 80/1/2
f 79/5/2 71/5/2 80/5/2
f 68/4/2 60/4/2 81/4/2
f 80/1/2 72/1/2 81/1/2
f 72/1/2 68/1/2 81/1/2
f 81/4/2 60/4/2 82/4/2
f 75/4/2 76/4/2 83/4/2
f 74/4/2 75/4/2 83/4/2
f 83/4/2 76/4/2 84/4/2
f 79/4/2 80/4/2 85/4/2
f 80/4/2 81/4/2 85/4/2
f 85/4/2 81/4/2 86/4/2
f 87/2/2 88/2/2 89/2/2
f 89/2/2 88/2/2 90/2/2
f 87/2/2 89/2/2 91/2/2
f 90/2/2 88/2/2 92/2/2
f 87/2/2 91/2/2 93/2/2
f 91/2/2 92/2/2 93/2/2
f 92/2/2 88/2/2 94/2/2
f 93/2/2 92/2/2 94/2/2
f 95/4/2 96/4/2 97/4/2
f 97/4/2 96/4/2 98/4/2
f 101/3/3 100/3/3 99/3/3
f 102/3/3 100/3/3 101/3/3
f 103/4/3 102/4/3 101/4/3
f 104/4/3 102/4/3 103/4/3
f 107/3/3 106/3/3 105/3/3
f 108/3/3 106/3/3 107/3/3
f 109/4/3 108/4/3 107/4/3
f 110/4/3 108/4/3 109/4/3
f 114/2/3 112/2/3 111/2/3
f 115/2/3 112/2/3 114/2/3
f 115/2/3 114/2/3 113/2/3
f 116/2/3 112/2/3 115/2/3
f 117/2/3 115/2/3 113/2/3
f 118/2/3 115/2/3 117/2/3
f 119/2/3 115/2/3 118/2/3
f 120/2/3 112/2/3 116/2/3
f 121/2/3 112/2/3 120/2/3
f 122/2/3 112/2/3 121/2/3
f 123/2/3 119/2/3 118/2/3
f 123/2/3 121/2/3 120/2/3
f 123/2/3 120/2/3 119/2/3
f 124/2/3 121/2/3 123/2/3
f 127/2/3 126/2/3 125/2/3
f 128/2/3 126/2/3 127/2/3
f 131/4/3 130/4/3 129/4/3
f 132/4/3 130/4/3 131/4/3
f 135/3/3 134/3/3 133/3/3
f 136/3/3 134/3/3 135/3/3
f 137/3/3 135/3/3 133/3/3
f 138/3/3 135/3/3 137/3/3
f 139/3/3 134/3/3 136/3/3
f 140/3/3 134/3/3 139/3/3
f 141/4/3 138/4/3 137/4/3
f 141/4/3 139/4/3 138/4/3
f 141/4/3 140/4/3 139/4/3
f 142/4/3 140/4/3 141/4/3
f 145/3/3 144/3/3 143/3/3
f 146/3/3 144/3/3 145/3/3
f 147/4/3 146/4/3 145/4/3
f 148/4/3 146/4/3 147/4/3
f 149/3/4 150/3/4 151/3/4
f 151/3/4 150/3/4 152/3/4
f 151/4/4 152/4/4 153/4/4
f 153/4/4 152/4/4 154/4/4
f 155/3/4 156/3/4 157/3/4
f 157/3/4 156/3/4 158/3/4
f 155/3/4 157/3/4 159/3/4
f 159/3/4 157/3/4 160/3/4
f 158/3/4 156/3/4 161/3/4
f 161/3/4 156/3/4 162/3/4
f 159/4/4 160/4/4 163/4/4
f 160/4/4 161/4/4 163/4/4
f 161/4/4 162/4/4 163/4/4
f 163/4/4 162/4/4 164/4/4
f 165/2/4 166/2/4 167/2/4
f 167/2/4 166/2/4 168/2/4
f 169/4/4 170/4/4 171/4/4
f 171/4/4 170/4/4 172/4/4
f 173/2/4 174/2/4 176/2/4
f 176/2/4 174/2/4 177/2/4
f 175/2/4 176/2/4 177/2/4
f 177/2/4 174/2/4 178/2/4
f 175/2/4 177/2/4 179/2/4
f 179/2/4 177/2/4 180/2/4
f 180/2/4 177/2/4 181/2/4
f 178/2/4 174/2/4 182/2/4
f 182/2/4 174/2/4 183/2/4
f 183/2/4 174/2/4 184/2/4
f 180/2/4 181/2/4 185/2/4
f 182/2/4 183/2/4 185/2/4
f 181/2/4 182/2/4 185/2/4
f 185/2/4 183/2/4 186/2/4
f 187/3/4 188/3/4 189/3/4
f 189/3/4 188/3/4 190/3/4
f 189/4/4 190/4/4 191/4/4
f 191/4/4 190/4/4 192/4/4
f 193/3/4 194/3/4 195/3/4
f 195/3/4 194/3/4 196/3/4
f 195/4/4 196/4/4 197/4/4
f 197/4/4 196/4/4 198/4/4
f 201/2/5 200/2/5 199/2/5
f 202/2/5 200/2/5 201/2/5
f 206/3/5 204/3/5 203/3/5
f 207/4/5 205/4/5 204/4/5
f 207/3/5 204/3/5 206/3/5
f 208/4/5 205/4/5 207/4/5
f 213/2/5 212/2/5 211/2/5
f 214/2/5 212/2/5 213/2/5
f 215/2/5 210/2/5 209/2/5
f 216/2/5 210/2/5 215/2/5
f 220/3/5 218/3/5 217/3/5
f 221/4/5 219/4/5 218/4/5
f 221/3/5 218/3/5 220/3/5
f 222/4/5 219/4/5 221/4/5
f 227/3/5 224/3/5 223/3/5
f 228/3/5 224/3/5 227/3/5
f 229/2/5 226/2/5 225/2/5
f 230/2/5 226/2/5 229/2/5
f 235/4/5 232/4/5 231/4/5
f 236/4/5 232/4/5 235/4/5
f 237/2/5 234/2/5 233/2/5
f 238/2/5 234/2/5 237/2/5
f 241/3/5 240/3/5 239/3/5
f 242/3/5 240/3/5 241/3/5
f 243/3/6 244/3/6 245/3/6
f 245/3/6 244/3/6 246/3/6
f 247/3/6 248/3/6 249/3/6
f 249/3/6 248/3/6 250/3/6
f 251/4/6 252/4/6 253/4/6
f 253/4/6 252/4/6 254/4/6
f 255/3/6 256/3/6 258/3/6
f 256/4/6 257/4/6 259/4/6
f 258/3/6 256/3/6 259/3/6
f 259/4/6 257/4/6 260/4/6
f 261/3/6 262/3/6 264/3/6
f 262/4/6 263/4/6 265/4/6
f 264/3/6 262/3/6 265/3/6
f 265/4/6 263/4/6 266/4/6
f 267/2/6 268/2/6 269/2/6
f 269/2/6 268/2/6 270/2/6
f 271/3/6 272/3/6 274/3/6
f 272/4/6 273/4/6 275/4/6
f 274/3/6 272/3/6 275/3/6
f 275/4/6 273/4/6 276/4/6
f 277/3/6 278/3/6 280/3/6
f 278/4/6 279/4/6 281/4/6
f 280/3/6 278/3/6 281/3/6
f 281/4/6 279/4/6 282/4/6
f 283/3/6 284/3/6 286/3/6
f 284/4/6 285/4/6 287/4/6
f 286/3/6 284/3/6 287/3/6
f 287/4/6 285/4/6 288/4/6
f 289/2/6 290/2/6 291/2/6
f 291/2/6 290/2/6 292/2/6
f 293/3/6 294/3/6 296/3/6
f 294/4/6 295/4/6 297/4/6
f 296/3/6 294/3/6 297/3/6
f 297/4/6 295/4/6 298/4/6
